<svg xmlns="http://www.w3.org/2000/svg" viewBox="0 0 35.23 31.4" fill="none">
    <g fill="#A4AF63">
        <path d="M4.357 10.739c-2.328-5.528-4.288-10.212-4.354-10.408-.079-.232 1.568-.322 4.713-.258l4.835.098 2.036 4.934 2.036 4.933-.863 1.946c-.475 1.07-1.528 3.492-2.34 5.382-.812 1.89-1.556 3.433-1.653 3.43-.097-.003-2.081-4.529-4.41-10.057z"/>
        <path d="M13.412 31.057c.065-.185 3.054-7.247 6.644-15.694l6.526-15.358 4.322-.005c2.377-.003 4.321.114 4.321.259 0 .145-2.975 7.209-6.612 15.698l-6.611 15.435h-4.354c-2.6 0-4.306-.135-4.236-.336z"/>
    </g>
</svg>
