<?xml version="1.0" encoding="utf-8"?>
<svg xmlns="http://www.w3.org/2000/svg" height="31.392197mm" id="svg5" version="1.1" viewBox="0 0 35.225063 31.392197"
     width="35.225063mm">
    <g id="layer1" transform="translate(-105.00734,-132.14608)">
        <g id="g265" style="fill:#A4AF63">
            <path d="m 109.36435,142.88522 c -2.32834,-5.52812 -4.28778,-10.21164 -4.35432,-10.40785 -0.0787,-0.23209 1.56815,-0.32236 4.71355,-0.25837 l 4.83453,0.0984 2.03641,4.93337 2.03641,4.93337 -0.86339,1.94579 c -0.47487,1.07019 -1.52798,3.49196 -2.34024,5.38171 -0.81226,1.88975 -1.55622,3.43339 -1.65323,3.43031 -0.097,-0.003 -2.08139,-4.52859 -4.40972,-10.0567 z"
                  id="path235" style="fill:#A4AF63;stroke-width:0.352778"/>
            <path d="m 118.41898,163.20267 c 0.0647,-0.18455 3.05447,-7.24664 6.64398,-15.69353 l 6.52639,-15.358 4.32153,-0.005 c 2.37684,-0.003 4.32152,0.11358 4.32152,0.25861 0,0.14503 -2.9753,7.2094 -6.61177,15.69861 l -6.61178,15.43492 h -4.35373 c -2.60055,0 -4.30638,-0.13511 -4.23614,-0.33553 z"
                  id="path233" style="fill:#A4AF63;stroke-width:0.352778"/>
        </g>
    </g>
</svg>
