<svg viewBox="22 22 176 140" fill="none" xmlns="http://www.w3.org/2000/svg">
    <path fill-rule="evenodd" clip-rule="evenodd" d="M102.339 140.376C101.996 141.654 102.96 142.91 104.284 142.91H115.878C117.202 142.91 118.166 141.654 117.823 140.376L112.026 118.739C111.493 116.75 108.669 116.75 108.136 118.739L102.339 140.376Z" fill="#0364FF"/>
    <path fill-rule="evenodd" clip-rule="evenodd" d="M90.7936 154.224C89.9057 157.538 86.9028 159.842 83.4722 159.842H67.7782C62.7944 159.842 59.1669 155.115 60.4568 150.301L92.6523 30.1454C93.6235 26.5211 96.9079 24.0009 100.66 24.0009H119.338C123.09 24.0009 126.374 26.5211 127.346 30.1454L159.541 150.301C160.831 155.115 157.204 159.842 152.22 159.842H136.526C133.095 159.842 130.092 157.538 129.204 154.224L113.545 95.7835C112.573 92.1553 107.425 92.1553 106.453 95.7835L90.7936 154.224Z" fill="#0364FF"/>
    <path fill-rule="evenodd" clip-rule="evenodd" d="M169.736 131.582C168.732 135.327 163.418 135.327 162.414 131.582L150.726 87.9604C150.5 87.117 150.5 86.2289 150.726 85.3856L165.622 29.7934C166.538 26.3762 169.634 24 173.172 24H188.376C193.515 24 197.256 28.8751 195.926 33.8395L169.736 131.582ZM69.4509 87.8876C69.6769 87.0442 69.6769 86.1562 69.4509 85.3128L54.5745 29.7934C53.6589 26.3762 50.5622 24 47.0244 24H31.8208C26.6812 24 22.9404 28.8751 24.2706 33.8395L50.4411 131.509C51.4447 135.254 56.759 135.254 57.7625 131.509L69.4509 87.8876Z" fill="#0364FF"/>
</svg>
